<?xml version="1.0" encoding="UTF-8"?>
<svg viewBox="-2 -2 555 555" width="555" height="555" xmlns="http://www.w3.org/2000/svg" xmlns:xlink="http://www.w3.org/1999/xlink">
  <defs>
	<circle id="clip-circle" cx="228.5" cy="228.5" r="170" />
	
	<path fill="gold" stroke="darkgrey" id="link" d="M421.512,207.074l-85.795,85.767c-47.352,47.38-124.169,47.38-171.529,0c-7.46-7.439-13.296-15.821-18.421-24.465
	  l39.864-39.861c1.895-1.911,4.235-3.006,6.471-4.296c2.756,9.416,7.567,18.33,14.972,25.736c23.648,23.667,62.128,23.634,85.762,0
	  l85.768-85.765c23.666-23.664,23.666-62.135,0-85.781c-23.635-23.646-62.105-23.646-85.768,0l-30.499,30.532
	  c-24.75-9.637-51.415-12.228-77.373-8.424l64.991-64.989c47.38-47.371,124.177-47.371,171.557,0
	  C468.869,82.897,468.869,159.706,421.512,207.074z 
	  M194.708,348.104l-30.521,30.532c-23.646,23.634-62.128,23.634-85.778,0
	  c-23.648-23.667-23.648-62.138,0-85.795l85.778-85.767c23.665-23.662,62.121-23.662,85.767,0
	  c7.388,7.39,12.204,16.302,14.986,25.706c2.249-1.307,4.56-2.369,6.454-4.266l39.861-39.845
	  c-5.092-8.678-10.958-17.03-18.421-24.477c-47.348-47.371-124.172-47.371-171.543,0L35.526,249.96
	  c-47.366,47.385-47.366,124.172,0,171.553c47.371,47.356,124.177,47.356,171.547,0l65.008-65.003 C246.109,360.336,219.437,357.723,194.708,348.104z"
	/>
  </defs>
  
  <mask id="my-mask">
	<rect x="-100" y="-100" width="750" height="750" fill="white" />
    <use xlink:href="#clip-circle" fill="black" />
  </mask>

  <clipPath id="myClip">
    <use xlink:href="#clip-circle" />
  </clipPath>
 
  <use xlink:href="#link" fill="gold" mask="url(#my-mask)"/>
  <g clip-path="url(#myClip)">
	<use transform="scale(1.3 1.3) translate(-55 -55)" xlink:href="#link" fill="gold" />
  </g>
  
  <use xlink:href="#clip-circle" fill="transparent" stroke="black" stroke-width="20"/>
  <rect transform="translate(615, 495) rotate(135)" x="50" y="20" rx="30" ry="30" width="70" height="275" />
</svg>